<svg width="1024" height="1024" viewBox="0 0 1024 1024" fill="none" xmlns="http://www.w3.org/2000/svg">
<path d="M944.532 358.443C950.691 352.402 960.521 352.343 966.752 358.266L1012.61 404.126C1020.07 438.905 1024 474.994 1024 512C1024 794.77 794.77 1024 512 1024C384.169 1024 267.281 977.151 177.564 899.689L444.854 632.4C451.01 626.574 460.661 626.57 466.822 632.389L557.393 722.959C563.641 729.207 573.771 729.207 580.02 722.959L944.532 358.443ZM512 0C614.729 0 710.391 30.2548 790.563 82.3398L752.009 120.896C745.76 127.144 745.76 137.275 752.009 143.523L775.023 166.538C780.842 172.671 780.871 182.283 775.113 188.452L579.704 383.861C573.525 389.819 563.737 389.832 557.543 383.9L467.057 293.414C460.808 287.166 450.678 287.166 444.43 293.414L36.251 701.591C12.8631 642.954 0 578.979 0 512C0 229.23 229.23 0 512 0Z" fill="url(#paint0_linear_25_103)"/>
<mask id="mask0_25_103" style="mask-type:alpha" maskUnits="userSpaceOnUse" x="0" y="0" width="1024" height="1024">
<rect width="1024" height="1024" rx="512" fill="#BC26E5"/>
</mask>
<g mask="url(#mask0_25_103)">
<path d="M557.06 469.074C563.308 475.322 573.439 475.322 579.687 469.074L568.374 480.387L557.06 469.074Z" fill="#BE92EF"/>
<path d="M467.277 547.704C461.029 541.455 450.898 541.455 444.65 547.704L455.964 536.39L467.277 547.704Z" fill="#BE92EF"/>
<rect x="111.185" y="881.174" width="119.94" height="606.831" rx="16" transform="rotate(-135 111.185 881.174)" fill="#BE92EF"/>
<rect x="568.68" y="649.113" width="119.53" height="603.681" rx="16" transform="rotate(-135 568.68 649.113)" fill="#BE92EF"/>
<rect x="418.787" y="499.213" width="119.095" height="150.811" transform="rotate(-45 418.787 499.213)" fill="#BE92EF"/>
</g>
<path d="M1001.5 116.615C1010.33 116.625 1017.48 123.775 1017.49 132.598L1017.65 284.927C1017.67 299.19 1000.43 306.344 990.341 296.259L837.843 143.761C827.758 133.676 834.912 116.432 849.174 116.448L1001.5 116.615Z" fill="#BE92EF"/>
<defs>
<linearGradient id="paint0_linear_25_103" x1="512" y1="0" x2="512" y2="1024" gradientUnits="userSpaceOnUse">
<stop stop-color="#A247E6"/>
<stop offset="1" stop-color="#7519E4"/>
</linearGradient>
</defs>
</svg>
