<svg width="512" height="512" viewBox="0 0 512 512" fill="none" xmlns="http://www.w3.org/2000/svg">
<path d="M256 0C397.385 0 512 114.615 512 256C512 397.385 397.385 512 256 512C114.615 512 0 397.385 0 256C0 114.615 114.615 0 256 0ZM256 8C119.033 8 8 119.033 8 256C8 392.967 119.033 504 256 504C392.967 504 504 392.967 504 256C504 119.033 392.967 8 256 8Z" fill="#7F56D9"/>
<path d="M256 118C332.215 118 394 179.785 394 256C394 332.215 332.215 394 256 394C179.785 394 118 332.215 118 256C118 179.785 179.785 118 256 118ZM256 126C184.203 126 126 184.203 126 256C126 327.797 184.203 386 256 386C327.797 386 386 327.797 386 256C386 184.203 327.797 126 256 126Z" fill="#7F56D9"/>
<path d="M256 8C392.967 8 504 119.033 504 256C504 392.967 392.967 504 256 504C119.033 504 8 392.967 8 256C8 119.033 119.033 8 256 8ZM256 126C184.203 126 126 184.203 126 256C126 327.797 184.203 386 256 386C327.797 386 386 327.797 386 256C386 184.203 327.797 126 256 126Z" fill="#7F56D9" fill-opacity="0.1"/>
<path d="M142 318.526C144.425 322.939 147.096 327.196 150 331.277V362H180.723C184.804 364.903 189.061 367.575 193.473 370H150V482H142V370H29V362H142V318.526ZM370 362H483V370H370V482H362V370H318.527C322.939 367.575 327.196 364.903 331.277 362H362V331.277C364.904 327.196 367.575 322.939 370 318.526V362ZM150 142H193.473C189.061 144.425 184.804 147.097 180.723 150H150V180.722C147.096 184.803 144.425 189.061 142 193.473V150H29V142H142V30H150V142ZM370 142H483V150H370V193.473C367.575 189.061 364.904 184.803 362 180.722V150H331.277C327.196 147.097 322.939 144.425 318.527 142H362V30H370V142Z" fill="#7F56D9"/>
<path d="M256 166V210.286H300L256 166Z" fill="#7F56D9"/>
<path d="M256 166L212 210.286H256V166Z" fill="#7F56D9"/>
<path d="M256 290V210.286M256 166L212 210.286H256M256 166L300 210.286H256M256 166V210.286" stroke="#7F56D9" stroke-width="32" stroke-linecap="round" stroke-linejoin="round"/>
<path d="M324.5 331H187" stroke="#7F56D9" stroke-width="24" stroke-linecap="round"/>
<path d="M447 201.5C427 194 427 194 419.5 174C413 194 413 194 392 201.5C413 208 413 208 419.5 229C427 208 427 208 447 201.5Z" fill="#7F56D9" stroke="#7F56D9" stroke-width="5" stroke-linecap="round" stroke-linejoin="round"/>
<path d="M179 118.5C140.818 104.182 140.818 104.182 126.5 66C114.091 104.182 114.091 104.182 74 118.5C114.091 130.909 114.091 130.909 126.5 171C140.818 130.909 140.818 130.909 179 118.5Z" fill="#7F56D9" stroke="#7F56D9" stroke-width="10" stroke-linecap="round" stroke-linejoin="round"/>
<path d="M113 251.5C93 244 93 244 85.5 224C79 244 79 244 58 251.5C79 258 79 258 85.5 279C93 258 93 258 113 251.5Z" fill="#7F56D9" stroke="#7F56D9" stroke-width="5" stroke-linecap="round" stroke-linejoin="round"/>
</svg>
